HIERARCHY
ROOT Hips
{
	OFFSET 0.000000 0.000000 0.000000
	CHANNELS 6 Xposition Yposition Zposition Xrotation Yrotation Zrotation
	JOINT LeftUpLeg_virtual
	{
		OFFSET 0.000000 0.000000 0.000000
		CHANNELS 3 Xrotation Yrotation Zrotation
		JOINT LeftUpLeg
		{
			OFFSET 15.427100 -6.655098 0.678600
			CHANNELS 3 Xrotation Yrotation Zrotation
			JOINT LeftLeg
			{
				OFFSET 4.081073 -39.591068 13.024000
				CHANNELS 3 Xrotation Yrotation Zrotation
				JOINT LeftFoot
				{
					OFFSET -4.081074 -37.707932 -15.979700
					CHANNELS 3 Xrotation Yrotation Zrotation
					JOINT LeftToeBase
					{
						OFFSET 5.346399 -15.068900 20.645000
						CHANNELS 3 Xrotation Yrotation Zrotation
						JOINT LeftToe_End
						{
							OFFSET 2.754700 0.931300 11.300900
							CHANNELS 3 Xrotation Yrotation Zrotation
							End Site
							{
								OFFSET 0 0 0
							}
						}
					}
				}
			}
		}
	}
	JOINT RightUpLeg_virtual
	{
		OFFSET 0.000000 0.000000 0.000000
		CHANNELS 3 Xrotation Yrotation Zrotation
		JOINT RightUpLeg
		{
			OFFSET -15.569500 -6.655098 0.678600
			CHANNELS 3 Xrotation Yrotation Zrotation
			JOINT RightLeg
			{
				OFFSET -4.081825 -39.591045 13.023800
				CHANNELS 3 Xrotation Yrotation Zrotation
				JOINT RightFoot
				{
					OFFSET 4.081824 -37.707954 -15.979600
					CHANNELS 3 Xrotation Yrotation Zrotation
					JOINT RightToeBase
					{
						OFFSET -5.346400 -15.068900 20.645000
						CHANNELS 3 Xrotation Yrotation Zrotation
						JOINT RightToe_End
						{
							OFFSET -2.754700 0.931300 11.300900
							CHANNELS 3 Xrotation Yrotation Zrotation
							End Site
							{
								OFFSET 0 0 0
							}
						}
					}
				}
			}
		}
	}
	JOINT Spine_virtual
	{
		OFFSET 0.000000 0.000000 0.000000
		CHANNELS 3 Xrotation Yrotation Zrotation
		JOINT Spine
		{
			OFFSET -0.279200 12.230698 -2.892100
			CHANNELS 3 Xrotation Yrotation Zrotation
			JOINT Spine1
			{
				OFFSET -0.232667 10.192268 -1.242267
				CHANNELS 3 Xrotation Yrotation Zrotation
				JOINT Spine1_split
				{
					OFFSET -0.232667 10.192268 -1.242267
					CHANNELS 3 Xrotation Yrotation Zrotation
					JOINT Spine2
					{
						OFFSET -0.232667 10.192268 -1.242267
						CHANNELS 3 Xrotation Yrotation Zrotation
						JOINT Neck_virtual
						{
							OFFSET 0.000000 0.000000 0.000000
							CHANNELS 3 Xrotation Yrotation Zrotation
							JOINT Neck
							{
								OFFSET -0.418800 17.814194 8.416900
								CHANNELS 3 Xrotation Yrotation Zrotation
								JOINT Head
								{
									OFFSET 0.000000 7.031097 3.806800
									CHANNELS 3 Xrotation Yrotation Zrotation
									JOINT HeadTop_End
									{
										OFFSET 0.000000 24.646606 12.978600
										CHANNELS 3 Xrotation Yrotation Zrotation
										End Site
										{
											OFFSET 0 0 0
										}
									}
								}
							}
						}
						JOINT LeftShoulder_virtual
						{
							OFFSET 0.000000 0.000000 0.000000
							CHANNELS 3 Xrotation Yrotation Zrotation
							JOINT LeftShoulder
							{
								OFFSET 8.476499 7.247704 -3.868750
								CHANNELS 3 Xrotation Yrotation Zrotation
								JOINT LeftShoulder_split
								{
									OFFSET 8.476499 7.247704 -3.868750
									CHANNELS 3 Xrotation Yrotation Zrotation
									JOINT LeftArm
									{
										OFFSET 9.308998 -2.777710 0.208600
										CHANNELS 3 Xrotation Yrotation Zrotation
										JOINT LeftForeArm
										{
											OFFSET 29.972298 0.000000 0.000000
											CHANNELS 3 Xrotation Yrotation Zrotation
											JOINT LeftHand
											{
												OFFSET 26.026505 0.000000 0.000000
												CHANNELS 3 Xrotation Yrotation Zrotation
												End Site
												{
													OFFSET 0 0 0
												}
											}
										}
									}
								}
							}
						}
						JOINT RightShoulder_virtual
						{
							OFFSET 0.000000 0.000000 0.000000
							CHANNELS 3 Xrotation Yrotation Zrotation
							JOINT RightShoulder
							{
								OFFSET -7.570500 7.247704 -3.868750
								CHANNELS 3 Xrotation Yrotation Zrotation
								JOINT RightShoulder_split
								{
									OFFSET -7.570500 7.247704 -3.868750
									CHANNELS 3 Xrotation Yrotation Zrotation
									JOINT RightArm
									{
										OFFSET -9.308998 -2.777710 0.208500
										CHANNELS 3 Xrotation Yrotation Zrotation
										JOINT RightForeArm
										{
											OFFSET -29.972300 0.000000 0.000000
											CHANNELS 3 Xrotation Yrotation Zrotation
											JOINT RightHand
											{
												OFFSET -26.026505 0.000000 0.000000
												CHANNELS 3 Xrotation Yrotation Zrotation
												End Site
												{
													OFFSET 0 0 0
												}
											}
										}
									}
								}
							}
						}
					}
				}
			}
		}
	}
}
MOTION
Frames: 7
Frame Time: 0.03333333
3.063060 87.779823 5.929195 0.000000 0.000000 0.000000 23.069406 13.062081 2.204937 -25.083006 13.929177 13.209656 23.820063 2.876707 -4.871220 -4.143507 27.667799 -13.443861 -6.404508 -0.650841 -1.374996 0.000000 0.000000 0.000000 24.399089 10.587587 2.752568 -60.138094 -8.311989 -14.931652 46.731423 4.786769 -2.888246 -5.172788 -8.981979 5.321760 1.693771 0.715286 0.288965 0.000000 0.000000 0.000000 22.029179 11.799410 3.694094 12.024783 -0.434360 1.548632 8.560389 2.171322 -2.985042 0.323618 -0.800913 0.715473 0.000000 0.000000 0.000000 9.459103 2.150820 -3.322843 -7.502998 5.281127 -0.109039 -22.845477 -1.875354 -9.306399 0.000000 0.000000 0.000000 10.532184 2.046267 -2.774948 1.448584 4.384397 -8.689037 -0.289862 -2.422702 -1.788999 -29.179856 -1.180455 -58.512482 1.604542 -41.224153 -0.098576 0.000000 0.000000 0.000000 9.329766 1.609050 -3.189428 4.399874 23.621241 3.642848 -0.738700 5.099635 -0.245113 -22.247507 -14.765720 62.735916 -0.188169 36.704443 0.667677 0.000000 0.000000 0.000000 
3.271277 89.082146 7.904499 0.000000 0.000000 0.000000 22.436084 12.657114 2.500303 -26.133403 12.481373 12.304575 21.744928 4.244942 -4.616524 -3.160527 27.858313 -12.887253 -5.046686 -0.568348 -1.661855 0.000000 0.000000 0.000000 24.822572 9.767655 2.964434 -57.657452 -8.909100 -15.534121 45.092694 4.440466 -3.117342 -4.579033 -9.697419 4.802766 0.260180 0.705085 0.507929 0.000000 0.000000 0.000000 22.680312 11.601390 3.494464 11.650513 0.187769 2.024947 8.564381 2.396519 -2.835879 0.327742 0.224027 1.227051 0.000000 0.000000 0.000000 9.365909 2.315041 -3.237541 -7.345842 4.814702 -0.310369 -23.042637 -1.899632 -9.554096 0.000000 0.000000 0.000000 10.447555 2.203238 -2.707937 1.497432 5.081870 -8.204821 -1.320201 -0.759787 -1.765421 -27.577719 1.177141 -57.200673 0.962758 -39.815246 -0.418282 0.000000 0.000000 0.000000 9.432212 1.843941 -3.115755 4.624938 23.380958 3.577287 -1.492884 4.931720 -1.373265 -22.881489 -16.967856 61.901820 -0.237214 36.369238 0.776463 0.000000 0.000000 0.000000 
3.548826 90.754257 10.696686 0.000000 0.000000 0.000000 21.483380 13.876417 2.817065 -28.611951 10.917864 10.755183 19.868482 5.399892 -4.479088 -0.333581 27.516285 -13.844552 -2.333883 -0.586992 -1.907774 0.000000 0.000000 0.000000 24.395296 10.452171 3.154266 -52.903824 -10.754064 -16.919449 42.880505 4.160328 -3.134176 -6.025567 -10.841665 3.666990 -1.820190 0.764730 0.709904 0.000000 0.000000 0.000000 23.210535 11.909450 3.452040 11.472609 1.282596 2.711504 8.575656 2.919233 -2.361129 0.403944 0.378638 1.031502 0.000000 0.000000 0.000000 9.392040 2.769881 -2.742785 -7.295155 4.144793 -0.996492 -23.994690 -1.966271 -10.445811 0.000000 0.000000 0.000000 10.257274 2.662796 -2.319860 1.480480 5.126857 -8.019656 -1.696874 0.419327 -1.440374 -23.954742 4.136696 -55.023304 0.426803 -39.386948 -0.654826 0.000000 0.000000 0.000000 9.495853 2.370685 -2.661904 4.916021 22.891051 2.908936 -2.190232 4.821912 -2.098817 -24.921520 -19.262978 59.758753 -0.517359 37.112424 1.043159 0.000000 0.000000 0.000000 
3.845149 91.878510 14.083500 0.000000 0.000000 0.000000 20.277175 15.752283 3.151624 -31.991257 9.807807 8.825229 19.122520 6.159500 -4.449054 3.229012 26.467359 -15.658767 -0.772416 -0.758664 -1.459184 0.000000 0.000000 0.000000 23.176536 12.132049 3.369262 -47.208410 -13.529856 -18.507294 40.935745 4.218303 -2.743020 -9.029625 -12.091686 2.589049 -3.790481 0.923271 0.793918 0.000000 0.000000 0.000000 23.086449 13.071188 3.468528 11.516550 2.676394 3.439029 8.540063 3.638604 -1.681561 0.438472 -0.046478 0.704394 0.000000 0.000000 0.000000 9.535925 3.437293 -1.947948 -7.430922 3.308471 -1.918558 -25.476117 -2.286980 -11.716122 0.000000 0.000000 0.000000 9.958344 3.369829 -1.670330 1.465687 4.450514 -7.954764 -1.348165 0.671968 -0.989520 -19.393368 6.693893 -53.063712 0.183651 -40.046034 -0.738334 0.000000 0.000000 0.000000 9.516860 3.109482 -1.930159 5.168983 22.399295 1.795217 -2.997611 4.803128 -2.350708 -28.131512 -20.430653 56.586195 -0.852389 38.510123 1.306512 0.000000 0.000000 0.000000 
4.027889 91.893394 17.813845 0.000000 0.000000 0.000000 18.918468 17.645744 3.461522 -35.567438 9.634329 6.905716 19.892900 6.811145 -4.536262 4.938888 25.061301 -16.176729 -1.698006 -1.018026 -0.270907 0.000000 0.000000 0.000000 21.863879 14.122634 3.517261 -41.424971 -16.900477 -19.446805 39.628959 4.712289 -2.136077 -13.585539 -13.327570 2.081199 -5.377221 1.155396 0.628867 0.000000 0.000000 0.000000 22.202261 14.995518 3.365273 11.715876 4.249946 4.141218 8.437931 4.451499 -0.893903 0.134821 -0.076872 0.325296 0.000000 0.000000 0.000000 9.695039 4.200262 -1.013191 -7.797428 2.300915 -2.806866 -27.111077 -3.081468 -12.958153 0.000000 0.000000 0.000000 9.572305 4.211374 -0.861405 1.494258 3.324237 -7.899603 -0.980802 0.317845 -0.435052 -14.707603 8.299750 -51.962027 0.324145 -41.454740 -0.596926 0.000000 0.000000 0.000000 9.462911 3.952397 -1.057636 5.280343 22.115845 0.621917 -3.495501 4.775576 -2.489092 -32.074896 -19.514407 52.845997 -1.038590 40.095932 1.388204 0.000000 0.000000 0.000000 
4.109537 90.630341 21.732840 0.000000 0.000000 0.000000 17.578325 19.308106 3.550452 -38.722904 10.555020 5.579746 22.293135 7.368643 -4.821477 3.699496 23.685522 -14.571613 -3.824366 -1.290865 0.737214 0.000000 0.000000 0.000000 20.581921 16.398859 3.283129 -35.551254 -20.274776 -19.123744 39.080990 5.522777 -1.683647 -19.727379 -14.643728 2.000001 -6.007477 1.417813 0.235298 0.000000 0.000000 0.000000 20.621130 16.890578 3.074630 11.925104 5.871387 4.739468 8.211660 5.239776 -0.108882 0.521352 0.234005 -0.070258 0.000000 0.000000 0.000000 9.705879 4.924066 -0.132941 -8.362611 1.201366 -3.438498 -28.565019 -4.515103 -13.702616 0.000000 0.000000 0.000000 9.097735 5.048337 -0.012236 1.560126 1.960217 -7.585576 -0.793870 -0.457499 0.038666 -10.237070 8.600959 -51.617929 0.693431 -43.423218 -0.272365 0.000000 0.000000 0.000000 9.329502 4.773780 -0.227742 5.210686 22.084455 -0.359833 -3.561228 4.959741 -2.652860 -35.719936 -15.943630 49.471525 -0.877011 41.577417 1.134653 0.000000 0.000000 0.000000 
3.975412 88.672226 25.555824 0.000000 0.000000 0.000000 16.332809 20.677266 3.230781 -41.237551 11.660297 5.050814 25.798600 7.772374 -5.236103 0.648480 22.372928 -11.772799 -5.316643 -1.364781 0.940109 0.000000 0.000000 0.000000 19.450468 18.719576 2.556118 -29.090643 -23.103347 -17.307445 39.188992 6.234274 -1.474498 -26.571709 -16.160217 1.737206 -5.063769 1.649211 -0.215890 0.000000 0.000000 0.000000 18.657150 18.530003 2.458530 11.889936 7.383668 5.199867 7.859418 5.896690 0.542999 1.216652 1.408281 -0.362195 0.000000 0.000000 0.000000 9.442303 5.503238 0.546643 -8.863624 0.059999 -3.678660 -29.480118 -6.608521 -13.581214 0.000000 0.000000 0.000000 8.538450 5.744045 0.677244 1.662927 0.731309 -6.954231 -0.546397 -1.649611 0.433688 -5.801419 8.050735 -51.434470 1.122958 -45.596625 0.114285 0.000000 0.000000 0.000000 9.072778 5.430739 0.392827 4.965678 21.958903 -1.081741 -3.488323 5.174448 -2.735855 -38.145691 -10.012465 46.893839 -0.367688 43.346573 0.550537 0.000000 0.000000 0.000000 
